<svg height="512" viewBox="0 0 74 74" width="512" xmlns="http://www.w3.org/2000/svg" data-name="color line"><rect fill="#6fc666" height="43.649" rx="3.083" width="68" x="3.9" y="17.476"/><path d="M71.9 20.56v37.48a3.07 3.07 0 01-2.97 3.07 1.139 1.139 0 00.02-.26V23.37a3.081 3.081 0 00-3.08-3.08H4.04a.487.487 0 00-.12.01 3.072 3.072 0 013.06-2.82h61.84a3.081 3.081 0 013.08 3.08z" fill="#65b54e"/><g fill="#fff"><path d="M17.258 54.886H3.9a.5.5 0 01-.5-.5V24.214a.5.5 0 01.5-.5h13.358a2.92 2.92 0 012.917 2.917v25.338a2.92 2.92 0 01-2.917 2.917zm-12.858-1h12.858a1.919 1.919 0 001.917-1.917V26.631a1.919 1.919 0 00-1.917-1.917H4.4z"/><path d="M7.581 45.554H3.9a.5.5 0 01-.5-.5V33.545a.5.5 0 01.5-.5h3.681a2.488 2.488 0 012.485 2.485v7.538a2.488 2.488 0 01-2.485 2.486zm-3.182-1h3.182a1.487 1.487 0 001.485-1.485v-7.538a1.487 1.487 0 00-1.485-1.485H4.4zm15.276 3.528a.5.5 0 01-.5-.5V31.018a.5.5 0 01.168-.374.477.477 0 01.392-.123A8.626 8.626 0 0127.3 39.3a8.627 8.627 0 01-7.562 8.779.5.5 0 01-.063.003zm.5-16.48V47a7.657 7.657 0 006.125-7.7 7.656 7.656 0 00-6.125-7.7zM71.9 54.886H58.542a2.92 2.92 0 01-2.917-2.917V26.631a2.92 2.92 0 012.917-2.917H71.9a.5.5 0 01.5.5v30.172a.5.5 0 01-.5.5zM58.542 24.714a1.919 1.919 0 00-1.917 1.917v25.338a1.919 1.919 0 001.917 1.917H71.4V24.714z"/><path d="M71.9 45.554h-3.681a2.488 2.488 0 01-2.485-2.485v-7.538a2.488 2.488 0 012.485-2.485H71.9a.5.5 0 01.5.5v11.508a.5.5 0 01-.5.5zm-3.681-11.509a1.487 1.487 0 00-1.485 1.485v7.538a1.487 1.487 0 001.485 1.485H71.4V34.045zM56.125 48.082a.5.5 0 01-.06 0A8.627 8.627 0 0148.5 39.3a8.626 8.626 0 017.563-8.778.487.487 0 01.392.123.5.5 0 01.168.374v16.563a.5.5 0 01-.5.5zm-.5-16.48A7.656 7.656 0 0049.5 39.3a7.657 7.657 0 006.125 7.7zM37.9 61.625a.5.5 0 01-.5-.5V17.476a.5.5 0 011 0v43.649a.5.5 0 01-.5.5z"/><path d="M37.9 46.232a6.932 6.932 0 116.932-6.932 6.94 6.94 0 01-6.932 6.932zm0-12.865a5.932 5.932 0 105.932 5.933 5.939 5.939 0 00-5.932-5.932z"/></g><path d="M68.337 64.624h-9.625a.5.5 0 010-1h9.625a.5.5 0 010 1zm-12.385 0h-.928a.5.5 0 010-1h.928a.5.5 0 010 1zM.953 20.3a.554.554 0 01-.063 0 .5.5 0 01-.434-.558 6.588 6.588 0 016.526-5.762h1.23a.5.5 0 010 1h-1.23a5.587 5.587 0 00-5.534 4.886.5.5 0 01-.495.434zm10.821-5.324h-1.062a.5.5 0 010-1h1.063a.5.5 0 010 1z" fill="#323c6b"/><path d="M68.816 61.625H6.983A3.587 3.587 0 013.4 58.041V20.559a3.587 3.587 0 013.584-3.583h61.832a3.587 3.587 0 013.584 3.583v37.482a3.587 3.587 0 01-3.584 3.584zM6.983 17.976A2.587 2.587 0 004.4 20.559v37.482a2.587 2.587 0 002.584 2.583h61.832a2.587 2.587 0 002.584-2.583V20.559a2.587 2.587 0 00-2.583-2.583z" fill="#323c6b"/><path d="M25.192 58.579h-8.613a.6.6 0 010-1.2h8.613a.6.6 0 010 1.2zm3.672 0h-.928a.6.6 0 010-1.2h.928a.6.6 0 010 1.2z" fill="#fff"/></svg>