<svg height="512" viewBox="0 0 501 501" width="512" xmlns="http://www.w3.org/2000/svg"><path d="M40.844 382.835C18.027 345.199 5.058 300.928 5.512 253.597 6.806 118.58 116.006 10.715 251.029 11.001 386.096 11.286 495.5 120.867 495.5 256c0 43.495-11.334 84.343-31.21 119.751C458.631 385.832 447.895 392 436.334 392H57.168c-6.667 0-12.868-3.465-16.324-9.165z" fill="#55a4f9"/><path d="M114.5 0c-8.284 0-15 6.716-15 15v395.163c0 15.451-19.003 22.928-29.456 11.551A245.946 245.946 0 0140.5 382.266V90h-3a8 8 0 01-8-8V48a8 8 0 018-8h3V15c0-8.284 6.716-15 15-15z" fill="#453d83"/><path d="M290.5 90v20h1a8 8 0 018 8v34a8 8 0 01-8 8h-1v240.398c0 58.065-53.256 102.005-110.089 90.107-2.263-.474-4.252-.98-5.913-1.522-32.426-10.571-61.878-27.722-86.781-49.877-5.257-4.677-8.217-11.412-8.217-18.448V15c0-8.284 6.716-15 15-15h181c8.284 0 15 6.716 15 15v25h1a8 8 0 018 8v34a8 8 0 01-8 8z" fill="#51489a"/><path d="M261.5 110v315c0 8.284-6.716 15-15 15H88.727A246.439 246.439 0 0169.5 421.12V110c0-8.284 6.716-15 15-15h162c8.284 0 15 6.716 15 15z" fill="#e9f3fe"/><path d="M69.5 110V65c0-8.284 6.716-15 15-15h162c8.284 0 15 6.716 15 15v45z" fill="#82cd64"/><path d="M234.5 140c0 5.523-4.477 10-10 10h-120c-5.523 0-10-4.477-10-10s4.477-10 10-10h120c5.523 0 10 4.477 10 10zm-70 30h-60c-5.523 0-10 4.477-10 10s4.477 10 10 10h60c5.523 0 10-4.477 10-10s-4.477-10-10-10z" fill="#c0e6b1"/><path d="M114.5 140c0 5.523-4.477 10-10 10s-10-4.477-10-10 4.477-10 10-10 10 4.477 10 10zm20-10c-5.523 0-10 4.477-10 10s4.477 10 10 10 10-4.477 10-10-4.477-10-10-10zm30 0c-5.523 0-10 4.477-10 10s4.477 10 10 10 10-4.477 10-10-4.477-10-10-10zm30 0c-5.523 0-10 4.477-10 10s4.477 10 10 10 10-4.477 10-10-4.477-10-10-10zm30 0c-5.523 0-10 4.477-10 10s4.477 10 10 10 10-4.477 10-10-4.477-10-10-10zm-120 40c-5.523 0-10 4.477-10 10s4.477 10 10 10 10-4.477 10-10-4.477-10-10-10zm30 0c-5.523 0-10 4.477-10 10s4.477 10 10 10 10-4.477 10-10-4.477-10-10-10zm30 0c-5.523 0-10 4.477-10 10s4.477 10 10 10 10-4.477 10-10-4.477-10-10-10z" fill="#6dc54a"/><path d="M204.5 180c0 5.523-4.477 10-10 10s-10-4.477-10-10 4.477-10 10-10 10 4.477 10 10zm20-10c-5.523 0-10 4.477-10 10s4.477 10 10 10 10-4.477 10-10-4.477-10-10-10zm-120 40c-5.523 0-10 4.477-10 10s4.477 10 10 10 10-4.477 10-10-4.477-10-10-10zm30 0c-5.523 0-10 4.477-10 10s4.477 10 10 10 10-4.477 10-10-4.477-10-10-10zm30 0c-5.523 0-10 4.477-10 10s4.477 10 10 10 10-4.477 10-10-4.477-10-10-10zm-60 40c-5.523 0-10 4.477-10 10s4.477 10 10 10 10-4.477 10-10-4.477-10-10-10zm30 0c-5.523 0-10 4.477-10 10s4.477 10 10 10 10-4.477 10-10-4.477-10-10-10zm30 0c-5.523 0-10 4.477-10 10s4.477 10 10 10 10-4.477 10-10-4.477-10-10-10z" fill="#a7d0fc"/><path d="M193 32.5h-26a7.5 7.5 0 010-15h26a7.5 7.5 0 010 15zM145.5 25a7.5 7.5 0 10-15 0 7.5 7.5 0 0015 0zm34 435h-30c-7.261 0-13.317 5.16-14.702 12.012A243.55 243.55 0 00177.692 490h1.808c8.284 0 15-6.716 15-15 0-8.284-6.716-15-15-15z" fill="#19305c"/><path d="M186.5 88h-84a8 8 0 010-16h84a8 8 0 010 16z" fill="#5db33a"/><path d="M145.5 370h-26c-13.807 0-25-11.193-25-25s11.193-25 25-25h26c13.807 0 25 11.193 25 25s-11.193 25-25 25z" fill="#c50048"/><path d="M209.5 370h-60c-13.807 0-25-11.193-25-25s11.193-25 25-25h60c13.807 0 25 11.193 25 25s-11.193 25-25 25z" fill="#f44545"/><path d="M464.5 375.376C422.601 450.326 342.468 501 250.5 501c-19.267 0-38.015-2.224-56-6.429V230h270z" fill="#ffe1aa"/><path d="M174.5 230h40v268.374a243.453 243.453 0 01-40-9.39z" fill="#ffd993"/><path d="M214.625 290H174.5v-75c0-8.284 6.716-15 15-15h40c8.284 0 15 6.716 15 15v45.125c0 16.5-13.375 29.875-29.875 29.875z" fill="#c50048"/><path d="M464.5 290h-250v-75c0-8.284 6.716-15 15-15h220c8.284 0 15 6.716 15 15z" fill="#f44545"/><path d="M244.5 190v60c0 5.523-4.477 10-10 10s-10-4.477-10-10v-60c0-5.523 4.477-10 10-10s10 4.477 10 10zm170-10c-5.523 0-10 4.477-10 10v60c0 5.523 4.477 10 10 10s10-4.477 10-10v-60c0-5.523-4.477-10-10-10z" fill="#ffc14f"/><path d="M394.5 385c0 41.421-33.579 75-75 75s-75-33.579-75-75 33.579-75 75-75 75 33.579 75 75z" fill="#82cd64"/><path d="M387.075 417.575C374.951 442.681 349.248 460 319.5 460c-41.421 0-75-33.579-75-75 0-29.748 17.319-55.451 42.425-67.575-4.758 9.852-7.425 20.902-7.425 32.575 0 41.421 33.579 75 75 75 11.673 0 22.724-2.667 32.575-7.425z" fill="#6dc54a"/><path d="M409.957 325.145l-88.4 93.763a7.5 7.5 0 01-10.914 0l-41.6-44.123a7.5 7.5 0 0110.914-10.29L316.1 402.83l82.943-87.975a7.5 7.5 0 0110.914 10.29z" fill="#fff5f5"/></svg>