<svg height="512" width="512" xmlns="http://www.w3.org/2000/svg"><path d="M460.8 256v-68.267c0-28.277-22.923-51.2-51.2-51.2H284.668c-6.43 0-11.609 5.262-11.601 11.692a73.445 73.445 0 003.534 22.442H34.809c-19.126 0-35.156 15.652-34.803 34.775.342 18.546 15.5 33.492 34.127 33.492h34.134v204.8H409.6c28.28 0 51.2-22.921 51.2-51.2H497c8.284 0 15-6.716 15-15V271c0-8.284-6.716-15-15-15z" fill="#ffdcc8"/><path d="M330.105 0H113.629C88.616 0 68.267 20.349 68.267 45.361v421.277c0 25.012 20.35 45.361 45.362 45.361h216.476c25.012 0 45.362-20.349 45.362-45.361V45.361C375.467 20.349 355.117 0 330.105 0z" fill="#00366d"/><path d="M375.467 466.639V45.361C375.467 20.349 355.117 0 330.105 0H221.867v512h108.238c25.012 0 45.362-20.349 45.362-45.361z" fill="#01223c"/><path d="M328.333 30H311.2v17.133c0 26.031-21.102 47.133-47.133 47.133h-84.4c-26.031 0-47.133-21.102-47.133-47.133V30h-17.133c-9.447 0-17.134 7.686-17.134 17.133v417.733c0 9.447 7.687 17.133 17.134 17.133h212.932c9.447 0 17.134-7.686 17.134-17.133V47.133c0-9.447-7.687-17.133-17.134-17.133z" fill="#5ff9fe"/><path d="M345.467 464.867V47.133c0-9.447-7.687-17.133-17.134-17.133H311.2v17.133c0 26.031-21.102 47.133-47.133 47.133h-42.2V482h106.466c9.447 0 17.134-7.686 17.134-17.133z" fill="#00dde7"/><circle cx="68.267" cy="409.6" fill="#ffc5bb" r="34.133"/><path d="M110.933 307.2c18.842 0 34.134-15.292 34.134-34.133s-15.292-34.133-34.134-34.133H42.667c-18.842 0-34.133 15.292-34.133 34.133S23.825 307.2 42.667 307.2h17.067c-18.842 0-34.133 15.292-34.133 34.133s15.292 34.133 34.133 34.133h51.2c18.842 0 34.134-15.292 34.134-34.133S129.775 307.2 110.933 307.2z" fill="#ffc5bb"/><path d="M254 447.733h-64.267c-8.284 0-15-6.716-15-15s6.716-15 15-15H254c8.284 0 15 6.716 15 15s-6.716 15-15 15z" fill="#00dde7"/><path d="M269 432.733c0-8.284-6.716-15-15-15h-32.133v30H254c8.284 0 15-6.715 15-15z" fill="#00bdcd"/><path d="M460.8 234v-46.267c0-28.277-22.923-51.2-51.2-51.2H284.668c-6.405 0-11.601 5.196-11.601 11.602 0 40.656 33.076 73.732 73.732 73.732h28.667v221.867H409.6c28.28 0 51.2-22.921 51.2-51.2H497c8.284 0 15-6.716 15-15V249c0-8.284-6.716-15-15-15z" fill="#ffc5bb"/><path d="M110.933 307.2h-51.2c-18.842 0-34.133 15.292-34.133 34.133s15.292 34.133 34.133 34.133h51.2c18.842 0 34.134-15.292 34.134-34.133S129.775 307.2 110.933 307.2zm264.534 0v136.533H409.6c28.28 0 51.2-22.921 51.2-51.2H497c8.284 0 15-6.716 15-15V307.2z" fill="#ffadad"/></svg>