<svg height="512" viewBox="0 0 128 128" width="512" xmlns="http://www.w3.org/2000/svg"><path d="M6.306 39.363h115.387v82.331H6.306z" fill="#dfeef4"/><path d="M6.306 15.838h115.387v23.525H6.306z" fill="#f45858"/><path d="M60.269 6.306h7.462v19.062h-7.462zm29.783 0h7.462v19.062h-7.462zm-59.566 0h7.462v19.062h-7.462z" fill="#6d7a84"/><g fill="#3ea2e5"><circle cx="27.661" cy="57.048" r="6.283"/><circle cx="51.887" cy="57.048" r="6.283"/><circle cx="76.113" cy="57.048" r="6.283"/><circle cx="100.339" cy="57.048" r="6.283"/><circle cx="27.661" cy="80.528" r="6.283"/><circle cx="51.887" cy="80.528" r="6.283"/><circle cx="76.113" cy="80.528" r="6.283"/><circle cx="100.339" cy="80.528" r="6.283"/><circle cx="27.661" cy="104.009" r="6.283"/><circle cx="51.887" cy="104.009" r="6.283"/><circle cx="76.113" cy="104.009" r="6.283"/><circle cx="100.339" cy="104.009" r="6.283"/></g></svg>