<svg height="512" viewBox="0 0 510.069 510.069" width="512" xmlns="http://www.w3.org/2000/svg"><circle cx="254.534" cy="255.034" fill="#fee565" r="247.534"/><path d="M83.911 255.034c0-123.628 90.651-226.086 209.096-244.562A249.598 249.598 0 00254.534 7.5C117.825 7.5 7 118.325 7 255.034s110.825 247.534 247.534 247.534c13.081 0 25.947-1.018 38.48-2.973C174.569 481.12 83.911 378.663 83.911 255.034z" fill="#fdd62f"/><path d="M469.618 378.712a7.499 7.499 0 00-10.324 2.432c-21.142 34.168-50.755 62.733-85.638 82.607-35.961 20.488-76.98 31.318-118.622 31.318-88.24 0-169.179-48.254-211.23-125.932a7.5 7.5 0 00-13.191 7.141C75.288 458.804 161.282 510.07 255.034 510.07c44.241 0 87.828-11.51 126.047-33.285 37.055-21.112 68.511-51.455 90.968-87.748a7.5 7.5 0 00-2.431-10.325zM30.851 340.953C20.333 313.528 15 284.62 15 255.034c0-54.629 18.858-108.098 53.099-150.557a7.498 7.498 0 00-1.13-10.546 7.5 7.5 0 00-10.546 1.13c-17.895 22.189-31.838 46.978-41.442 73.676C5.041 196.372 0 225.407 0 255.034c0 31.429 5.668 62.144 16.846 91.29a7.502 7.502 0 007.004 4.816c.893 0 1.801-.161 2.684-.5a7.498 7.498 0 004.317-9.687zm404.52-266.255C387.201 26.529 323.156 0 255.034 0 189.012 0 126.391 25.138 78.708 70.782A7.5 7.5 0 0089.08 81.618C133.958 38.659 192.896 15 255.034 15c64.116 0 124.394 24.968 169.73 70.304 45.337 45.336 70.305 105.615 70.305 169.73 0 34.417-7.128 67.64-21.186 98.746a7.5 7.5 0 006.83 10.59 7.503 7.503 0 006.839-4.413c14.941-33.061 22.517-68.362 22.517-104.924 0-68.121-26.528-132.166-74.698-180.335z"/><path d="M171.084 301.871a7.5 7.5 0 10-14.044 5.268c7.366 19.635 20.353 36.429 37.556 48.564 17.601 12.417 38.328 18.98 59.938 18.98s42.337-6.563 59.938-18.98c17.203-12.136 30.189-28.929 37.556-48.564a7.499 7.499 0 00-4.388-9.656 7.499 7.499 0 00-9.656 4.388c-12.973 34.58-46.509 57.813-83.45 57.813s-70.477-23.234-83.45-57.813zm-6.374-127.49c-24.978 0-45.299 20.321-45.299 45.298a7.5 7.5 0 0015 0c0-16.707 13.592-30.298 30.299-30.298s30.299 13.592 30.299 30.298a7.5 7.5 0 0015 0c0-24.978-20.321-45.298-45.299-45.298zm150.349 45.298c0-16.707 13.592-30.298 30.299-30.298s30.299 13.592 30.299 30.298a7.5 7.5 0 0015 0c0-24.978-20.321-45.298-45.299-45.298s-45.299 20.321-45.299 45.298a7.5 7.5 0 0015 0zM63.2 248.947a7.501 7.501 0 00-9.54 4.636l-11.058 31.97a7.5 7.5 0 0014.175 4.904l11.058-31.97a7.5 7.5 0 00-4.635-9.54zm21.212 46.56a7.503 7.503 0 007.087-5.05l11.058-31.97a7.5 7.5 0 00-14.176-4.904l-11.058 31.97a7.5 7.5 0 007.089 9.954zm330.188 0a7.503 7.503 0 007.087-5.05l11.058-31.97a7.5 7.5 0 00-14.176-4.904l-11.058 31.97a7.5 7.5 0 007.089 9.954zm34.721 0a7.503 7.503 0 007.087-5.05l11.058-31.97a7.5 7.5 0 00-14.176-4.904l-11.058 31.97a7.5 7.5 0 007.089 9.954z"/></svg>